<mxfile host="app.diagrams.net" modified="2023-09-28T22:33:24.213Z" agent="Mozilla/5.0 (Windows NT 10.0; Win64; x64) AppleWebKit/537.36 (KHTML, like Gecko) Chrome/117.0.0.0 Safari/537.36 Edg/117.0.2045.31" version="22.0.0" etag="duDaforPucTqWA8OR7zN" type="github">
  <diagram name="Page-1" id="ZNXRcuj_-hWVCMtz4Vlx">
    <mxGraphModel>
      <root>
        <mxCell id="0" />
        <mxCell id="1" parent="0" />
      </root>
    </mxGraphModel>
  </diagram>
</mxfile>
